<svg version="1.1" viewBox="0 0 380.67 198.88" xml:space="preserve" xmlns="http://www.w3.org/2000/svg"><title>第二聲</title><path d="m55.628 119.96v-69.48h-41.28v-10.56h96.12v29.52h-78.96q-.96 6-2.4 12.24t-3.24 13.08l-13.56-1.32q2.16-9 3.84-17.52t2.88-16.92h77.52v-8.52h-26.28v69.48zm-43.8-.36-5.4-11.16q16.44-5.28 29.04-11.4t20.28-12.12l6.72 7.68q-7.92 7.08-20.64 14.04t-30 12.96zm87-4.08q-2.28 0-7.32-.24t-10.32-.6l-.24-11.88q4.44.48 8.16.72 3.84.12 5.4.12 1.8 0 2.76-.36 1.08-.36 1.56-1.68.6-1.44.72-4.56.24-3.12.36-8.76h-77.64v-10.32h93q0 12.6-.72 20.16t-2.52 11.28-5.04 4.92q-3.12 1.2-8.16 1.2zm-83.04-71.76-9.12-8.76q6.12-5.28 10.92-11.88 4.92-6.72 7.56-12.96l12.96 2.52q-2.76 8.16-8.76 16.44-5.88 8.28-13.56 14.64zm22.92 1.56q-1.56-4.56-3.48-9.24-1.8-4.68-3.72-9.24l12.6-4.2q1.92 4.44 3.72 9.24 1.92 4.68 3.48 9.24zm-13.44-15.24v-11.52h38.4v11.52zm39.72 11.28-9-9q6.24-4.68 11.28-10.68t7.68-11.64l12.84 2.64q-2.88 7.56-9 15.24-6 7.56-13.8 13.44zm23.4 3.96q-1.56-4.56-3.48-9.24-1.8-4.68-3.72-9.24l12.6-4.2q1.92 4.44 3.72 9.24 1.92 4.68 3.48 9.24zm-12.96-15.24v-11.52h41.64v11.52z" style="fill:currentColor"/><path d="m130.67 0v130h250v-130h-250zm153.44 10.1h9.2422v5.4004h23.641v6.9609h-23.641v5.0391h20.881v4.1152c2.8922-1.8199 4.9771-3.8684 6.2383-6.1543 1.36-2.4 2.041-5.3217 2.041-8.7617v-4.5586h33.48v13.801c0 .83585.40732 1.0567 1.3965 1.0547h7.0801c1.6031 0 4.5414-.15919 6.1445-.63477.13359 2.3779.26797 5.2315.53516 7.6094-1.4695.47558-4.1411.63477-6.4121.63477l-9.4219-.078125c-1.7237-.05106-3.2545-.13836-4.3633-.30469-1.52-.24-2.6002-.68031-3.2402-1.3203-.56-.72-.83985-1.6398-.83985-2.7598v-11.16h-15.84v.71875c0 7.14-3.2688 12.943-9.7988 17.52h45.197v6.959c-3.5198 3.9197-7.5983 7.3603-12.238 10.32-1.0163.6483-2.0927 1.271-3.1934 1.8848 6.2 2.1568 12.943 3.9289 20.232 5.3145l-4.2012 6.9609c-9.155-1.816-17.656-4.4298-25.523-7.8203-1.2603.4994-2.5378.99294-3.875 1.4609-6.4 2.24-14.04 4.24-22.92 6l-3.1211-6.9609c8.095-1.3321 15.126-2.948 21.121-4.8379-4.9364-2.7462-9.1878-5.6894-12.721-8.8418l5.834-3.4805h-9.7949v-6.959h4.8945l-6.6934-5.4238v2.1836h-50.881v-6.4805h20.76v-5.0391h-23.641v-6.9609h23.641v-5.4004zm-105.6 3.2012h10.451l-39.051 103.4h-10.449l39.049-103.4zm49.5 0h10.451l-39.051 103.4h-10.449l39.049-103.4zm37.5 24.76h46.68v22.32h-38.281c-.24779 2.1486-.55165 4.1827-.95898 6-.2136.953-.47265 1.8608-.74024 2.7598h96.5v7.1992h-14.76v43.561h-9.4805v-9.2539c-2.2211.12836-4.4382.22112-11.279.61329-12.48.71999-24.879 1.3208-37.199 1.8008-12.32.48003-24.281.84009-35.881 1.0801l-.11915-7.3203c4.8362-.06716 9.7829-.17722 14.76-.30078v-30.18h-5.5664c-.40276.7019-.82223 1.3875-1.2734 2.041l-8.5195-3.8418c1.36-2 2.4794-4.2798 3.3594-6.8398.96-2.56 1.6391-5.56 2.0391-9 .48-3.4401.72071-7.3989.72071-11.879v-8.7598zm62.047 6.1191c3.75 3.1186 8.6098 6.0258 14.615 8.7148 5.3346-2.4758 9.8308-5.3819 13.492-8.7148h-28.107zm-53.047.24023v4.8008c0 1.5414-.0345 3.0091-.08789 4.4395h11.127v-9.2402h-11.039zm18.721 0v9.2402h11.039v-9.2402h-11.039zm-9 31.801v5.7598h60.238v-5.7598h-60.238zm0 11.398v6.1211h60.238v-6.1211h-60.238zm0 12v6.6211c3.8234-.11995 7.6182-.22879 11.521-.38085 12.4-.48 24.838-1.0788 37.318-1.7988 6.9415-.44216 9.157-.56854 11.398-.72071v-3.7207h-60.238z" style="fill:currentColor"/><path d="m4e-4 198.24 8.96-44.8h18.112c4.5653 0 8.4693.768 11.712 2.304 3.2427 1.4933 5.7173 3.6267 7.424 6.4 1.7493 2.7733 2.624 6.0373 2.624 9.792 0 3.968-.68267 7.5733-2.048 10.816-1.3227 3.2427-3.2213 6.016-5.696 8.32-2.432 2.2613-5.3547 4.032-8.768 5.312-3.4133 1.2373-7.2107 1.856-11.392 1.856zm9.728-7.04h11.456c4.0107 0 7.4453-.81067 10.304-2.432 2.9013-1.664 5.12-3.904 6.656-6.72s2.304-6.016 2.304-9.6c0-2.432-.53333-4.544-1.6-6.336-1.0667-1.792-2.6667-3.1787-4.8-4.16-2.0907-.98133-4.7147-1.472-7.872-1.472h-10.304zm46.136 7.04 8.96-44.8h8.32l-8.96 44.8zm23.416 0 8.96-44.8h6.848l20.416 34.752-2.624-.32 6.848-34.432h8.256l-8.96 44.8h-6.848l-20.352-34.752 2.624.32-6.912 34.432zm54.84 0 8.96-44.8h8.32l-8.96 44.8zm38.072.64c-2.3467 0-4.6293-.23467-6.848-.704-2.176-.46933-4.1813-1.088-6.016-1.856-1.792-.81067-3.2853-1.7067-4.48-2.688l3.52-6.528c1.2373 1.024 2.6453 1.8987 4.224 2.624s3.2427 1.28 4.992 1.664c1.792.384 3.584.576 5.376.576 2.176 0 4.0747-.256 5.696-.768s2.8587-1.2373 3.712-2.176c.896-.93867 1.344-2.0693 1.344-3.392 0-1.1947-.40533-2.1547-1.216-2.88-.81067-.768-1.8987-1.3867-3.264-1.856-1.3227-.512-2.7947-.98133-4.416-1.408-1.5787-.46933-3.1787-.98133-4.8-1.536-1.6213-.59733-3.0933-1.3227-4.416-2.176-1.3227-.896-2.4107-2.0267-3.264-3.392-.81067-1.3653-1.216-3.072-1.216-5.12 0-2.944.81067-5.4827 2.432-7.616 1.664-2.176 3.9467-3.8613 6.848-5.056 2.944-1.1947 6.3573-1.792 10.24-1.792 2.9013 0 5.6533.32 8.256.96s4.8427 1.5787 6.72 2.816l-3.264 6.592c-1.664-1.1093-3.5413-1.9627-5.632-2.56s-4.2667-.896-6.528-.896c-2.2187 0-4.1387.27733-5.76.832s-2.8587 1.3227-3.712 2.304-1.3013 2.1333-1.344 3.456c0 1.2373.40533 2.24 1.216 3.008.81067.72533 1.8773 1.344 3.2 1.856s2.7947 1.0027 4.416 1.472c1.6213.42667 3.2213.91733 4.8 1.472 1.6213.55467 3.1147 1.2587 4.48 2.112s2.4533 1.9413 3.264 3.264c.81067 1.28 1.216 2.9013 1.216 4.864 0 2.944-.832 5.504-2.496 7.68-1.6213 2.176-3.9253 3.8613-6.912 5.056-2.944 1.1947-6.4 1.792-10.368 1.792zm69.048-45.44h8.256l-8.96 44.8h-8.256zm-32.128 44.8h-8.32l8.96-44.8h8.32zm27.648-19.2h-24.384l1.344-7.104h24.512zm18.872 19.2 8.96-44.8h8.32l-8.96 44.8zm23.416 0 8.96-44.8h6.848l20.416 34.752-2.624-.32 6.848-34.432h8.256l-8.96 44.8h-6.848l-20.352-34.752 2.624.32-6.912 34.432zm77.56.64c-4.48 0-8.3413-.81067-11.584-2.432s-5.76-3.8613-7.552-6.72c-1.7493-2.9013-2.624-6.2293-2.624-9.984 0-3.7973.64-7.3173 1.92-10.56 1.3227-3.2853 3.2-6.144 5.632-8.576s5.3547-4.3307 8.768-5.696c3.456-1.408 7.296-2.112 11.52-2.112 4.096 0 7.6587.64 10.688 1.92s5.4613 3.0933 7.296 5.44l-6.016 4.992c-1.4933-1.792-3.264-3.072-5.312-3.84-2.0053-.81067-4.352-1.216-7.04-1.216-2.9013 0-5.5253.49067-7.872 1.472-2.3467.93867-4.352 2.2827-6.016 4.032s-2.944 3.7973-3.84 6.144c-.896 2.304-1.344 4.8-1.344 7.488 0 2.432.53333 4.5867 1.6 6.464s2.6667 3.328 4.8 4.352 4.7787 1.536 7.936 1.536c2.3467 0 4.544-.384 6.592-1.152 2.0907-.81067 4.0533-2.0053 5.888-3.584l3.264 6.528c-2.2187 1.7493-4.8 3.1147-7.744 4.096-2.9013.93867-5.888 1.408-8.96 1.408zm9.152-6.784 3.328-16.768h7.872l-3.648 18.048z" style="fill:currentColor"/></svg>
